/* XPM */
static char * icone_1_xpm[] = {
"32 32 209 2",
"  	c None",
". 	c #FFFFFF",
"+ 	c #555555",
"@ 	c #B2B2B2",
"# 	c #2500FF",
"$ 	c #A6A6A6",
"% 	c #323232",
"& 	c #3D3D3D",
"* 	c #434343",
"= 	c #4A4A4A",
"- 	c #4B4B4B",
"; 	c #4E4E4E",
"> 	c #1B1349",
", 	c #1D154B",
"' 	c #292157",
") 	c #4F4F4F",
"! 	c #ACACAC",
"~ 	c #AD9FFF",
"{ 	c #BDBDBD",
"] 	c #8E8E8E",
"^ 	c #AAAAAA",
"/ 	c #7B7B7B",
"( 	c #737373",
"_ 	c #747474",
": 	c #767676",
"< 	c #6D6D6D",
"[ 	c #3B3B3B",
"} 	c #7E7E7E",
"| 	c #C3C3C3",
"1 	c #A9A9A9",
"2 	c #BCBCBC",
"3 	c #535353",
"4 	c #929292",
"5 	c #AFAFAF",
"6 	c #7F7F7F",
"7 	c #787878",
"8 	c #414141",
"9 	c #8B8B8B",
"0 	c #AEAEAE",
"a 	c #8F8F8F",
"b 	c #C7C7C7",
"c 	c #B5B5B5",
"d 	c #545454",
"e 	c #C1C1C1",
"f 	c #919191",
"g 	c #757575",
"h 	c #777777",
"i 	c #7A7A7A",
"j 	c #3A3A3A",
"k 	c #ADADAD",
"l 	c #CCCCCC",
"m 	c #7C7C7C",
"n 	c #C6C6C6",
"o 	c #B0B0B0",
"p 	c #B7B7B7",
"q 	c #464646",
"r 	c #363636",
"s 	c #A5A5A5",
"t 	c #B3B3B3",
"u 	c #707070",
"v 	c #727272",
"w 	c #CACACA",
"x 	c #858585",
"y 	c #C0C0C0",
"z 	c #9A9A9A",
"A 	c #BEBEBE",
"B 	c #999999",
"C 	c #A4A4A4",
"D 	c #251D53",
"E 	c #B6B6B6",
"F 	c #C7C6C6",
"G 	c #D1D0D0",
"H 	c #D2D2D2",
"I 	c #CECDCD",
"J 	c #C8C8C8",
"K 	c #C9C9C9",
"L 	c #C5C5C5",
"M 	c #BFBFBF",
"N 	c #B4B4B4",
"O 	c #444444",
"P 	c #C2C3C3",
"Q 	c #BBB2B2",
"R 	c #94979B",
"S 	c #515959",
"T 	c #515250",
"U 	c #767575",
"V 	c #A59B9C",
"W 	c #999898",
"X 	c #929393",
"Y 	c #939393",
"Z 	c #9D9D9D",
"` 	c #494949",
" .	c #BCB3B6",
"..	c #4F7377",
"+.	c #218770",
"@.	c #29C6BB",
"#.	c #1A6F54",
"$.	c #00A194",
"%.	c #20706F",
"&.	c #7A7675",
"*.	c #B1AEAF",
"=.	c #A6A7A6",
"-.	c #A7A7A7",
";.	c #C2C2C2",
">.	c #403B3D",
",.	c #445A4C",
"'.	c #0FB899",
").	c #52AA50",
"!.	c #8AF2DD",
"~.	c #A8FAF2",
"{.	c #23DEC3",
"].	c #4EC8B1",
"^.	c #043E21",
"/.	c #878786",
"(.	c #BBBABA",
"_.	c #42474B",
":.	c #1B6F36",
"<.	c #3BA43D",
"[.	c #40AC6B",
"}.	c #6AB67C",
"|.	c #63C18F",
"1.	c #BDFDF5",
"2.	c #188642",
"3.	c #077E57",
"4.	c #305D53",
"5.	c #B3AEB0",
"6.	c #B3B2B2",
"7.	c #26868B",
"8.	c #1CA26C",
"9.	c #1D8D1F",
"0.	c #3BA45E",
"a.	c #26A965",
"b.	c #47BE8B",
"c.	c #C4FFFF",
"d.	c #0CDDC5",
"e.	c #29BDA3",
"f.	c #339E90",
"g.	c #6F7777",
"h.	c #0A6A6F",
"i.	c #21A86E",
"j.	c #258F21",
"k.	c #00801C",
"l.	c #28B071",
"m.	c #E4FFFF",
"n.	c #BCFFFF",
"o.	c #3EE6BD",
"p.	c #0F773C",
"q.	c #004E2A",
"r.	c #585757",
"s.	c #127B7C",
"t.	c #35E7D6",
"u.	c #52AC64",
"v.	c #018627",
"w.	c #66CDA5",
"x.	c #64D0AA",
"y.	c #B1FFFF",
"z.	c #32D1B5",
"A.	c #056A36",
"B.	c #005934",
"C.	c #5D5E5E",
"D.	c #4E8483",
"E.	c #20EFF2",
"F.	c #97F9F5",
"G.	c #41A660",
"H.	c #49BB86",
"I.	c #56B982",
"J.	c #81E5D2",
"K.	c #87FDFF",
"L.	c #18C8B8",
"M.	c #056754",
"N.	c #9B9292",
"O.	c #473939",
"P.	c #15B4B4",
"Q.	c #6BFFFF",
"R.	c #49D8CB",
"S.	c #006A35",
"T.	c #006E39",
"U.	c #1FD8C8",
"V.	c #5EFFFF",
"W.	c #02F1F3",
"X.	c #4D7E81",
"Y.	c #BCB1B1",
"Z.	c #991507",
"`.	c #534F4F",
" +	c #8F8E8E",
".+	c #1BB2B2",
"++	c #63EBED",
"@+	c #1A8A65",
"#+	c #009573",
"$+	c #00FFFF",
"%+	c #00D5D5",
"&+	c #438282",
"*+	c #BCADAD",
"=+	c #CECECE",
"-+	c #D1D1D1",
";+	c #B8B8B8",
">+	c #383838",
",+	c #868787",
"'+	c #635F5F",
")+	c #483A3A",
"!+	c #548282",
"~+	c #12483A",
"{+	c #0A4134",
"]+	c #2C8787",
"^+	c #484747",
"/+	c #473D3D",
"(+	c #484949",
"_+	c #505050",
":+	c #797979",
". . . . . . . . . . . . . . . . . . . . . . . . . . . . . . . . ",
". . . . . . . . . . . . . + + + + + + + . . . . . . . . . . . . ",
". . . . . . . . . . + + + @ @ @ @ @ @ @ + + + . . . . . . . . . ",
". . . . . . . . + + @ @ @ @ . . . . . @ @ @ @ + + . . . . . . . ",
". . . . . . . + @ @ . . . . . . . . . . . . . @ @ + . . . . . . ",
". . . . . . + @ . . . . . . . . . . . . . . . . . @ + . . . . . ",
". . . . . + @ . . . . . . . . . . . . . . . . . . . @ + . . . . ",
". . . . + @ . . . . . . . . . . . . . . . . . . . . . @ + . . . ",
". . . + @ . . . . . . . . . . . . . . . . . . . . . . . @ + . . ",
". . . + @ . . . . . . . . . . . . . . . . . . . . . . . @ + . . ",
". . + @ . . . . . . . . . . . . . . . . . . . . . . . . . @ + . ",
". . + @ . . . . . . . . . . # # # # # . . . . . . . . . . @ + . ",
". . + @ . . . . . . . . . # # # # # # # . . . . . . . . . @ + . ",
"$ % & * = = = = = - ; - > , ' ) ! . ~ # # . . . . . . . . . @ + ",
"- { ] ^ / ( _ _ : < [ ; : } | 1 + 2 . # # # . . . . . . . . @ + ",
"3 | 4 5 6 : 7 7 / 8 9 0 a } b c ! + ^ . # # . . . . . . . . @ + ",
"d e f 0 } g h h i j k l f m n o p ^ q . # # . . . . . . . . @ + ",
"d e f 0 } g h h i r s n f m n o t o d . # # . . . . . . . . @ + ",
"d e a ! i u v v ( 3 2 w x 7 n o t 0 3 # # # . . . . . . . . @ + ",
") y z A ^ a 4 4 f B 1 C a ! l 5 t 0 D # # . . . . . . . . . @ + ",
"= A E F G H I J w K L n K w M N t 0 D # . . . . . . . . . @ + . ",
"O P Q R S T U V W X Y Y Y Y Y Z c 0 D . . . . . . . . . . @ + . ",
"`  ...+.@.#.$.%.&.*.=.-.-.-.C E ;.! 3 . . . . . . . . . . @ + . ",
">.,.'.).!.~.{.].^./.(.N N N @ ;.| ! 3 . . . . . . . . . @ + . . ",
"_.:.<.[.}.|.1.2.3.4.5.6.@ @ o y | ! 3 . . . . . . . . . @ + . . ",
"7.8.9.0.a.b.c.d.e.f.g.(.@ @ o y | ! 3 . . . . . . . . @ + . . . ",
"h.i.j.k.l.m.n.o.p.q.r.M @ @ o y | ! 3 . . . . . . . @ + . . . . ",
"s.t.u.v.w.x.y.z.A.B.C.A @ @ o y | ! 3 . . . . . . @ + . . . . . ",
"D.E.F.G.H.I.J.K.L.M.N.E @ @ o y | ! 3 . . . . @ @ + . . . . . . ",
"O.P.Q.R.S.T.U.V.W.X.Y.@ @ @ o y | ! 3 . @ @ @ + + Z.Z.Z.Z.Z.Z.Z.",
"`. +.+++@+#+$+%+&+*+P M M M { =+-+;+>+@ + + + Z.Z.Z.Z.Z.Z.Z.Z.Z.",
",+'+)+!+~+{+]+^+/+(+O = ) = ` ) _+= :++ . . . . . . . . . . . . "};
